<svg xmlns="http://www.w3.org/2000/svg" xmlns:xlink="http://www.w3.org/1999/xlink" width="333.747" height="30.075" viewBox="0 0 333.747 30.075">
  <defs>
    <clipPath id="clip-path">
      <rect id="Rectángulo_7" data-name="Rectángulo 7" width="333.747" height="30.075" transform="translate(0 0)" fill="none"/>
    </clipPath>
  </defs>
  <g id="Grupo_12" data-name="Grupo 12" transform="translate(0 0)">
    <g id="Grupo_4" data-name="Grupo 4" clip-path="url(#clip-path)">
      <path id="Trazado_20" data-name="Trazado 20" d="M39.691,14.81a3.314,3.314,0,0,1,3.263-3.363V.721H.721V11.6a3.154,3.154,0,0,1,.656-.07,3.268,3.268,0,0,1,0,6.533A3.087,3.087,0,0,1,.721,18v10.33H42.954V18.173a3.314,3.314,0,0,1-3.263-3.363" fill="#b4061e"/>
      <path id="Trazado_21" data-name="Trazado 21" d="M43.675,29.049H0V17.1l.874.19a2.426,2.426,0,0,0,.5.054,2.547,2.547,0,0,0,0-5.091,2.36,2.36,0,0,0-.5.054L0,12.5V0H43.675V12.169h-.721a2.644,2.644,0,0,0,0,5.284h.721ZM1.442,27.607H42.233V18.828a4.1,4.1,0,0,1,0-8.035V1.443H1.442v9.372a3.991,3.991,0,0,1,0,7.975Z" fill="#b4061e"/>
      <path id="Trazado_22" data-name="Trazado 22" d="M8.724,8.845h1.407l1.56,2.548,1.56-2.548h1.408V14.87H13.37V10.937L11.7,13.51h-.034l-1.653-2.548V14.87H8.724Z" fill="#fff"/>
      <path id="Trazado_23" data-name="Trazado 23" d="M21.366,8.8h1.2l2.544,6.068H23.748L23.2,13.519H20.7l-.543,1.351H18.822Zm1.373,3.546-.788-1.954-.789,1.954Z" fill="#fff"/>
      <path id="Trazado_24" data-name="Trazado 24" d="M29.508,8.845h2.315a3.464,3.464,0,0,1,1.276.228,2.994,2.994,0,0,1,1,.633,2.828,2.828,0,0,1,.649.951,3.029,3.029,0,0,1,.229,1.184v.017a3.06,3.06,0,0,1-.229,1.188A2.815,2.815,0,0,1,34.1,14a3.051,3.051,0,0,1-1,.637,3.4,3.4,0,0,1-1.276.232H29.508Zm2.315,4.829a1.986,1.986,0,0,0,.729-.129,1.573,1.573,0,0,0,.564-.37,1.74,1.74,0,0,0,.364-.568,1.94,1.94,0,0,0,.132-.732v-.017a1.985,1.985,0,0,0-.132-.732,1.715,1.715,0,0,0-.364-.576,1.611,1.611,0,0,0-.564-.375,1.927,1.927,0,0,0-.729-.133H30.814v3.632Z" fill="#fff"/>
      <path id="Trazado_25" data-name="Trazado 25" d="M9.6,17.794H8.7v-.611h2.459v.611h-.9v2.4H9.6Z" fill="#fff"/>
      <rect id="Rectángulo_5" data-name="Rectángulo 5" width="0.653" height="3.013" transform="translate(13.009 17.182)" fill="#fff"/>
      <path id="Trazado_26" data-name="Trazado 26" d="M17.117,20.247a1.517,1.517,0,0,1-.606-.12,1.482,1.482,0,0,1-.8-.822A1.6,1.6,0,0,1,15.6,18.7v-.009a1.576,1.576,0,0,1,.115-.6,1.545,1.545,0,0,1,.318-.495,1.472,1.472,0,0,1,.487-.336,1.559,1.559,0,0,1,.627-.123,1.935,1.935,0,0,1,.38.035,1.577,1.577,0,0,1,.311.094,1.336,1.336,0,0,1,.259.147,1.66,1.66,0,0,1,.22.189l-.415.486a1.569,1.569,0,0,0-.354-.249.894.894,0,0,0-.4-.091.824.824,0,0,0-.619.276.965.965,0,0,0-.178.3,1.039,1.039,0,0,0-.063.364v.008a1.058,1.058,0,0,0,.063.366.967.967,0,0,0,.176.3.821.821,0,0,0,.271.2.811.811,0,0,0,.35.075.9.9,0,0,0,.43-.095,1.653,1.653,0,0,0,.35-.258l.416.426a2.255,2.255,0,0,1-.238.224,1.407,1.407,0,0,1-.269.17,1.368,1.368,0,0,1-.32.107,1.859,1.859,0,0,1-.39.037" fill="#fff"/>
      <path id="Trazado_27" data-name="Trazado 27" d="M20.177,17.183h.653V18.5l1.2-1.317h.788l-1.208,1.278,1.263,1.734h-.784l-.92-1.282-.343.361v.921h-.653Z" fill="#fff"/>
      <path id="Trazado_28" data-name="Trazado 28" d="M24.594,17.183h2.234v.59h-1.59v.611h1.4v.589h-1.4v.633h1.611v.589H24.594Z" fill="#fff"/>
      <path id="Trazado_29" data-name="Trazado 29" d="M29.448,17.794h-.9v-.611H31v.611h-.9v2.4h-.653Z" fill="#fff"/>
      <path id="Trazado_30" data-name="Trazado 30" d="M33.886,20.238a1.941,1.941,0,0,1-.666-.118,1.755,1.755,0,0,1-.593-.364l.386-.469a1.929,1.929,0,0,0,.417.267,1.1,1.1,0,0,0,.469.1.559.559,0,0,0,.316-.076.238.238,0,0,0,.112-.208V19.36a.258.258,0,0,0-.024-.114.227.227,0,0,0-.089-.092.892.892,0,0,0-.182-.086c-.078-.029-.18-.059-.3-.091a3.485,3.485,0,0,1-.408-.125,1.109,1.109,0,0,1-.311-.17.674.674,0,0,1-.2-.251.886.886,0,0,1-.071-.375v-.008a.9.9,0,0,1,.076-.373.857.857,0,0,1,.213-.286.951.951,0,0,1,.327-.185,1.293,1.293,0,0,1,.419-.064,1.687,1.687,0,0,1,1.1.382l-.339.5a2.2,2.2,0,0,0-.39-.218.987.987,0,0,0-.382-.079.459.459,0,0,0-.286.075.231.231,0,0,0-.095.187V18a.28.28,0,0,0,.027.127.259.259,0,0,0,.1.1.943.943,0,0,0,.2.081c.084.026.189.056.317.091a2.979,2.979,0,0,1,.4.135,1.147,1.147,0,0,1,.3.181.715.715,0,0,1,.183.248.85.85,0,0,1,.061.34V19.3a.934.934,0,0,1-.08.4.82.82,0,0,1-.223.293,1,1,0,0,1-.342.181,1.48,1.48,0,0,1-.44.062" fill="#fff"/>
      <path id="Trazado_31" data-name="Trazado 31" d="M65.22.645h1.965L78.454,17.758,89.723.645h1.965V29.58H89.6V4.448L78.494,21.106h-.16L67.225,4.448V29.58h-2Z" fill="#18191e"/>
      <path id="Trazado_32" data-name="Trazado 32" d="M110.7.438H112.7l13.073,29.141h-2.286l-3.569-8.1H103.358l-3.569,8.1H97.623Zm8.341,19.1L111.659,2.794,104.24,19.535Z" fill="#18191e"/>
      <path id="Trazado_33" data-name="Trazado 33" d="M131.71.645h9.344a16.185,16.185,0,0,1,6.036,1.1,14.231,14.231,0,0,1,4.732,3.039,13.547,13.547,0,0,1,3.068,4.567,14.777,14.777,0,0,1,1.082,5.684v.082a14.927,14.927,0,0,1-1.082,5.7,13.507,13.507,0,0,1-3.068,4.588,14.486,14.486,0,0,1-4.732,3.059,15.9,15.9,0,0,1-6.036,1.116H131.71Zm9.344,26.992a13.782,13.782,0,0,0,5.294-.975,11.593,11.593,0,0,0,6.556-6.593,13.015,13.015,0,0,0,.9-4.874v-.083a13.053,13.053,0,0,0-.9-4.851,11.738,11.738,0,0,0-6.556-6.678,13.544,13.544,0,0,0-5.294-.995h-7.259V27.637Z" fill="#18191e"/>
      <path id="Trazado_34" data-name="Trazado 34" d="M168.805,6.514h-8.542V.644h23.26v5.87h-8.542V29.579h-6.176Z" fill="#18191e"/>
      <rect id="Rectángulo_6" data-name="Rectángulo 6" width="6.176" height="28.935" transform="translate(188.535 0.644)" fill="#18191e"/>
      <path id="Trazado_35" data-name="Trazado 35" d="M214.883,30.075a14.139,14.139,0,0,1-10.306-4.32,14.435,14.435,0,0,1-3.008-4.732,15.654,15.654,0,0,1-1.083-5.829v-.082A15.492,15.492,0,0,1,201.569,9.3a14.987,14.987,0,0,1,3.008-4.754,13.939,13.939,0,0,1,4.611-3.224A14.628,14.628,0,0,1,215.123.148a18.071,18.071,0,0,1,3.59.331,14.7,14.7,0,0,1,2.947.909,12.743,12.743,0,0,1,2.447,1.406,16.747,16.747,0,0,1,2.085,1.818l-3.93,4.671a14.906,14.906,0,0,0-3.349-2.4,8.312,8.312,0,0,0-3.829-.868,7.618,7.618,0,0,0-3.269.7,7.761,7.761,0,0,0-2.587,1.942,9.134,9.134,0,0,0-1.684,2.873,10.027,10.027,0,0,0-.6,3.493v.083a10.193,10.193,0,0,0,.6,3.513,9.274,9.274,0,0,0,1.664,2.894,7.778,7.778,0,0,0,2.567,1.963,7.519,7.519,0,0,0,3.309.723,8.391,8.391,0,0,0,4.07-.909,15.833,15.833,0,0,0,3.308-2.48l3.93,4.092a20.506,20.506,0,0,1-2.245,2.15A13.286,13.286,0,0,1,221.6,28.69a12.9,12.9,0,0,1-3.028,1.034,17.8,17.8,0,0,1-3.689.351" fill="#18191e"/>
      <path id="Trazado_36" data-name="Trazado 36" d="M231.325.645H237.5V13.294L248.89.645h7.459L244.92,12.922,256.87,29.58h-7.418l-8.7-12.318L237.5,20.734V29.58h-6.176Z" fill="#18191e"/>
      <path id="Trazado_37" data-name="Trazado 37" d="M260.6.645h21.134V6.308H266.7v5.87H279.93V17.84H266.7v6.077h15.239V29.58H260.6Z" fill="#18191e"/>
      <path id="Trazado_38" data-name="Trazado 38" d="M294.006,6.514h-8.542V.644h23.26v5.87h-8.542V29.579h-6.176Z" fill="#18191e"/>
      <path id="Trazado_39" data-name="Trazado 39" d="M323.481,29.993a18.087,18.087,0,0,1-6.3-1.137,16.566,16.566,0,0,1-5.615-3.493l3.65-4.505a18.282,18.282,0,0,0,3.95,2.563,10.292,10.292,0,0,0,4.431.95,5.272,5.272,0,0,0,2.988-.723,2.3,2.3,0,0,0,1.063-2.005V21.56a2.576,2.576,0,0,0-.221-1.095,2.281,2.281,0,0,0-.845-.888,8.753,8.753,0,0,0-1.729-.827,29.541,29.541,0,0,0-2.875-.868,34.267,34.267,0,0,1-3.86-1.2,10.769,10.769,0,0,1-2.935-1.633,6.556,6.556,0,0,1-1.87-2.418,8.606,8.606,0,0,1-.664-3.6V8.953a8.611,8.611,0,0,1,.717-3.575,8.127,8.127,0,0,1,2.012-2.749A8.971,8.971,0,0,1,318.475.852a12.072,12.072,0,0,1,3.963-.62A15.893,15.893,0,0,1,332.865,3.91L329.657,8.7a20.2,20.2,0,0,0-3.69-2.087,9.183,9.183,0,0,0-3.609-.765,4.279,4.279,0,0,0-2.707.723,2.222,2.222,0,0,0-.9,1.8v.082a2.676,2.676,0,0,0,.261,1.22,2.4,2.4,0,0,0,.945.93,8.793,8.793,0,0,0,1.87.785q1.186.372,3,.868a28.164,28.164,0,0,1,3.8,1.3,10.563,10.563,0,0,1,2.815,1.736,6.611,6.611,0,0,1,1.729,2.377,8.276,8.276,0,0,1,.583,3.266v.082a9.2,9.2,0,0,1-.756,3.824,7.826,7.826,0,0,1-2.112,2.81,9.423,9.423,0,0,1-3.234,1.737,13.665,13.665,0,0,1-4.164.6" fill="#18191e"/>
    </g>
  </g>
</svg>
