<svg id="Grupo_15" data-name="Grupo 15" xmlns="http://www.w3.org/2000/svg" xmlns:xlink="http://www.w3.org/1999/xlink" width="253" height="23.021" viewBox="0 0 253 23.021">
  <defs>
    <clipPath id="clip-path">
      <rect id="Rect치ngulo_9" data-name="Rect치ngulo 9" width="253" height="23.021" fill="#fff"/>
    </clipPath>
  </defs>
  <path id="Trazado_40" data-name="Trazado 40" d="M79.221.5,70.552,13.66,61.884.5H60.372V22.753h1.542V3.421L70.46,16.236h.123L79.128,3.421V22.753h1.6V.5Z" transform="translate(-13.932 -0.114)" fill="#fff"/>
  <path id="Trazado_41" data-name="Trazado 41" d="M103.572,2.1l5.676,12.878H97.865ZM102.832.29,92.776,22.706h1.665l2.745-6.232h12.74l2.746,6.232h1.758L104.374.29Z" transform="translate(-21.41 -0.067)" fill="#fff"/>
  <g id="Grupo_7" data-name="Grupo 7">
    <g id="Grupo_6" data-name="Grupo 6" clip-path="url(#clip-path)">
      <path id="Trazado_42" data-name="Trazado 42" d="M126.862.5h7.188a12.45,12.45,0,0,1,4.643.842,10.946,10.946,0,0,1,3.64,2.338,10.407,10.407,0,0,1,2.359,3.513,11.352,11.352,0,0,1,.833,4.372v.063a11.468,11.468,0,0,1-.833,4.388,10.376,10.376,0,0,1-2.359,3.529,11.142,11.142,0,0,1-3.64,2.353,12.228,12.228,0,0,1-4.643.858h-7.188Zm7.188,20.763a10.6,10.6,0,0,0,4.072-.75,8.918,8.918,0,0,0,5.043-5.072,10.011,10.011,0,0,0,.695-3.749v-.064a10.04,10.04,0,0,0-.695-3.732,9.029,9.029,0,0,0-5.043-5.137,10.419,10.419,0,0,0-4.072-.765h-5.584V21.259Z" transform="translate(-29.276 -0.114)" fill="#fff"/>
      <path id="Trazado_43" data-name="Trazado 43" d="M161.986,5.011h-6.571V.5h17.892V5.011h-6.571V22.753h-4.751Z" transform="translate(-35.865 -0.114)" fill="#fff"/>
      <rect id="Rect치ngulo_8" data-name="Rect치ngulo 8" width="4.751" height="22.258" transform="translate(141.298 0.382)" fill="#fff"/>
      <path id="Trazado_44" data-name="Trazado 44" d="M206.714,23.021a10.877,10.877,0,0,1-7.928-3.323,11.1,11.1,0,0,1-2.314-3.64,12.042,12.042,0,0,1-.833-4.484v-.063a11.917,11.917,0,0,1,.833-4.468,11.529,11.529,0,0,1,2.314-3.657,10.722,10.722,0,0,1,3.547-2.48A11.253,11.253,0,0,1,206.9,0a13.9,13.9,0,0,1,2.762.255,11.312,11.312,0,0,1,2.267.7,9.8,9.8,0,0,1,1.882,1.082,12.882,12.882,0,0,1,1.6,1.4L212.39,7.027a11.466,11.466,0,0,0-2.576-1.844,6.394,6.394,0,0,0-2.945-.668,5.86,5.86,0,0,0-2.515.541,5.97,5.97,0,0,0-1.99,1.494,7.026,7.026,0,0,0-1.3,2.21,7.714,7.714,0,0,0-.462,2.687v.064a7.841,7.841,0,0,0,.462,2.7,7.134,7.134,0,0,0,1.28,2.226,5.983,5.983,0,0,0,1.975,1.51,5.784,5.784,0,0,0,2.545.556,6.455,6.455,0,0,0,3.131-.7,12.179,12.179,0,0,0,2.545-1.908l3.023,3.148A15.772,15.772,0,0,1,213.84,20.7a10.219,10.219,0,0,1-1.959,1.255,9.925,9.925,0,0,1-2.329.8,13.691,13.691,0,0,1-2.838.27" transform="translate(-45.147 0)" fill="#fff"/>
      <path id="Trazado_45" data-name="Trazado 45" d="M226.477.5h4.751v9.73L239.989.5h5.738L236.935,9.94l9.192,12.814h-5.706l-6.695-9.475-2.5,2.671v6.8h-4.751Z" transform="translate(-52.264 -0.114)" fill="#fff"/>
      <path id="Trazado_46" data-name="Trazado 46" d="M255.752.5h16.257V4.852H260.442V9.368h10.18v4.355h-10.18V18.4h11.722v4.356H255.752Z" transform="translate(-59.02 -0.114)" fill="#fff"/>
      <path id="Trazado_47" data-name="Trazado 47" d="M287.187,5.011h-6.571V.5h17.892V5.011h-6.571V22.753h-4.751Z" transform="translate(-64.757 -0.114)" fill="#fff"/>
      <path id="Trazado_48" data-name="Trazado 48" d="M315.885,22.976a13.912,13.912,0,0,1-4.843-.875,12.733,12.733,0,0,1-4.319-2.687l2.807-3.465a14.064,14.064,0,0,0,3.038,1.972,7.917,7.917,0,0,0,3.409.731,4.056,4.056,0,0,0,2.3-.556,1.766,1.766,0,0,0,.818-1.542v-.064a1.982,1.982,0,0,0-.17-.842,1.755,1.755,0,0,0-.65-.683,6.731,6.731,0,0,0-1.33-.636,22.656,22.656,0,0,0-2.212-.668,26.358,26.358,0,0,1-2.969-.922,8.285,8.285,0,0,1-2.258-1.256,5.044,5.044,0,0,1-1.438-1.86,6.62,6.62,0,0,1-.511-2.766V6.791a6.624,6.624,0,0,1,.552-2.75,6.251,6.251,0,0,1,1.548-2.115A6.9,6.9,0,0,1,312.034.56a9.286,9.286,0,0,1,3.048-.477A12.225,12.225,0,0,1,323.1,2.912L320.635,6.6A15.542,15.542,0,0,0,317.8,5a7.063,7.063,0,0,0-2.776-.588,3.291,3.291,0,0,0-2.082.556,1.709,1.709,0,0,0-.694,1.384V6.41a2.058,2.058,0,0,0,.2.938,1.842,1.842,0,0,0,.727.715,6.764,6.764,0,0,0,1.438.6q.913.286,2.3.668a21.661,21.661,0,0,1,2.922,1A8.126,8.126,0,0,1,322,11.672a5.085,5.085,0,0,1,1.33,1.828,6.367,6.367,0,0,1,.448,2.512v.063a7.078,7.078,0,0,1-.581,2.942,6.021,6.021,0,0,1-1.625,2.162,7.252,7.252,0,0,1-2.487,1.336,10.52,10.52,0,0,1-3.2.461" transform="translate(-70.782 -0.019)" fill="#fff"/>
      <path id="Trazado_49" data-name="Trazado 49" d="M32.574,22.27H0V14.013l.362.077a2.1,2.1,0,1,0,0-4.11L0,10.057V1.392H32.574V9.87h-.3a2.171,2.171,0,1,0,0,4.342h.3ZM.6,21.67H31.975V14.8a2.77,2.77,0,0,1,0-5.508v-7.3H.6V9.344a2.714,2.714,0,0,1,2.9,2.692A2.7,2.7,0,0,1,.6,14.727ZM6.358,7.66H7.424L8.605,9.531,9.786,7.66h1.065v4.425H9.876V9.2l-1.265,1.89H8.586L7.334,9.215v2.87H6.358Zm9.571-.032h.912l1.926,4.457H17.733l-.411-.992h-1.9l-.411.992H14Zm1.04,2.6-.6-1.435-.6,1.435ZM22.1,7.66h1.752a2.676,2.676,0,0,1,.965.168,2.277,2.277,0,0,1,.758.465,2.054,2.054,0,0,1,.491.7,2.161,2.161,0,0,1,.174.869v.012a2.185,2.185,0,0,1-.174.873,2.059,2.059,0,0,1-.491.7,2.322,2.322,0,0,1-.758.468,2.644,2.644,0,0,1-.965.171H22.1Zm1.752,3.547a1.549,1.549,0,0,0,.552-.1,1.19,1.19,0,0,0,.427-.272,1.269,1.269,0,0,0,.276-.417,1.4,1.4,0,0,0,.1-.538V9.872a1.428,1.428,0,0,0-.1-.537,1.26,1.26,0,0,0-.276-.424,1.229,1.229,0,0,0-.427-.275,1.5,1.5,0,0,0-.552-.1h-.764v2.668ZM7.022,14.233H6.339v-.449H8.2v.449H7.517V16H7.022ZM9.6,13.784H10.1V16H9.6Zm3.11,2.251a1.175,1.175,0,0,1-.459-.088,1.133,1.133,0,0,1-.366-.242,1.118,1.118,0,0,1-.241-.362,1.152,1.152,0,0,1-.086-.445V14.89a1.142,1.142,0,0,1,.086-.445,1.155,1.155,0,0,1,.241-.363,1.12,1.12,0,0,1,.369-.247,1.218,1.218,0,0,1,.475-.09,1.5,1.5,0,0,1,.287.025,1.236,1.236,0,0,1,.236.069,1.041,1.041,0,0,1,.2.108,1.324,1.324,0,0,1,.167.139l-.315.357a1.185,1.185,0,0,0-.268-.183.685.685,0,0,0-.306-.066.638.638,0,0,0-.262.053.621.621,0,0,0-.208.149.693.693,0,0,0-.135.219.731.731,0,0,0-.048.267v.007a.745.745,0,0,0,.048.268.721.721,0,0,0,.133.222.623.623,0,0,0,.471.205.692.692,0,0,0,.325-.07,1.264,1.264,0,0,0,.265-.189l.315.313a1.62,1.62,0,0,1-.18.164,1.089,1.089,0,0,1-.2.125,1.053,1.053,0,0,1-.242.078,1.434,1.434,0,0,1-.295.027m2.317-2.251h.495v.968l.911-.968h.6l-.915.939L17.075,16h-.594l-.7-.942-.259.265V16H15.03Zm3.344,0h1.692v.433h-1.2v.449h1.058V15.1H18.862v.465h1.219V16H18.374Zm3.675.449h-.684v-.449h1.862v.449h-.684V16h-.494Zm3.36,1.8a1.512,1.512,0,0,1-.5-.087,1.334,1.334,0,0,1-.449-.267l.292-.345a1.461,1.461,0,0,0,.315.2.86.86,0,0,0,.355.072.435.435,0,0,0,.239-.055.173.173,0,0,0,.085-.153v-.006a.192.192,0,0,0-.018-.084.178.178,0,0,0-.068-.068.752.752,0,0,0-.138-.063c-.058-.021-.135-.043-.23-.066a2.882,2.882,0,0,1-.309-.092.9.9,0,0,1-.235-.125A.507.507,0,0,1,24.6,14.7a.633.633,0,0,1-.053-.275v-.007a.612.612,0,0,1,.218-.483.729.729,0,0,1,.248-.136,1.011,1.011,0,0,1,.317-.048,1.361,1.361,0,0,1,.455.073,1.318,1.318,0,0,1,.38.208L25.9,14.4a1.65,1.65,0,0,0-.3-.16.762.762,0,0,0-.289-.058.351.351,0,0,0-.216.055.167.167,0,0,0-.072.138v.006a.2.2,0,0,0,.021.093.189.189,0,0,0,.075.072.754.754,0,0,0,.15.06c.063.018.143.041.239.066a2.284,2.284,0,0,1,.3.1.871.871,0,0,1,.225.132.507.507,0,0,1,.138.182.6.6,0,0,1,.047.25v.006a.666.666,0,0,1-.061.292A.594.594,0,0,1,26,15.85a.757.757,0,0,1-.259.132,1.128,1.128,0,0,1-.333.046" transform="translate(0 -0.321)" fill="#fff"/>
    </g>
  </g>
</svg>
